<?xml version="1.0" encoding="utf-8"?>
<!-- Generator: Adobe Illustrator 22.1.0, SVG Export Plug-In . SVG Version: 6.00 Build 0)  -->
<svg version="1.1" id="Layer_1" xmlns="http://www.w3.org/2000/svg" xmlns:xlink="http://www.w3.org/1999/xlink" x="0px" y="0px"
	 viewBox="0 0 837 620" style="enable-background:new 0 0 837 620;" xml:space="preserve">
<style type="text/css">
	.st0{fill:none;stroke:#FFFFFF;stroke-width:3;stroke-miterlimit:10;}
</style>
<g>
	<path class="st0" d="M322.4,33.3l-87,264l65-29c2.7-1.3,5.7-2,9-2c5.7,0,10.7,2.1,15,6.2c4.3,4.2,6.5,9.4,6.5,15.8
		c0,3.7-1.3,7.9-4,12.8c-2.7,4.8-6.2,7.2-10.5,7.2l-96,34.5l-87,264.5c-1.7,3.7-4.2,5.5-7.5,5.5c-2.3,0-4.2-0.8-5.5-2.5
		c-1.3-1.7-2-3.3-2-5c0-0.3,0.1-0.7,0.2-1c0.2-0.3,0.2-0.7,0.2-1l69-249l-122,44L30.4,499.8c-1.7,3.7-4.3,5.5-8,5.5
		c-2.3,0-4.2-0.9-5.5-2.8c-1.3-1.8-2-3.6-2-5.2c0-1,0.2-1.8,0.5-2.5l23.5-87.5l-22,8c-0.7,0.3-1.8,0.5-3.5,0.5
		c-2.7,0-4.9-0.9-6.8-2.8c-1.8-1.8-2.8-4.2-2.8-7.2c0-4.3,1.8-7.3,5.5-9l37-16.5l78-286.5c1.3-4.7,4-8.5,8-11.5s8.3-4.5,13-4.5
		c6.3,0,11.6,2.2,15.8,6.5c4.2,4.3,6.2,9.3,6.2,15c0,1.3-0.2,2.6-0.5,3.8c-0.3,1.2-0.5,2.4-0.5,3.8l-90,261l123-55l81-292.5
		c1.3-4.7,4.1-8.4,8.2-11.2c4.2-2.8,8.6-4.2,13.2-4.2c6,0,11.1,2.2,15.2,6.5c4.2,4.3,6.2,9.3,6.2,15c0,1-0.2,2.1-0.5,3.2
		C322.6,30.7,322.4,31.9,322.4,33.3z"/>
	<path class="st0" d="M306.9,321.8l-1.5,3.5l-5,10l-11.5,27c-1.7,5-3.2,9.8-4.8,14.2s-2.8,9.2-3.8,14.2l-3,14l-1,6.5v6.5
		c0.7-0.3,1.2-0.7,1.8-1c0.5-0.3,1.1-0.8,1.8-1.5l4-5c2.7-2.7,4.7-5.3,6-8l5.5-9c3.7-6.3,6.8-12.9,9.5-19.8
		c2.7-6.8,5.2-13.8,7.5-20.8l4.5-14l1.5-7l0.5-2.5l1-3v-2c0.7-4.7,2.6-8.5,5.8-11.5c3.2-3,7.1-4.5,11.8-4.5c6,0,10.6,2.1,13.8,6.2
		c3.2,4.2,4.8,9.4,4.8,15.8c0,6-0.5,10.7-1.5,14c-1,3.3-2,6.6-3,9.8c-1,3.2-2,7-3,11.5s-1.5,11.2-1.5,20.2v3.5l2-2.5
		c0.7-0.7,1.2-1.2,1.8-1.8s1.1-1.1,1.8-1.8l6.5-8.5l3-4c5-7.7,9.4-15.4,13.2-23.2c3.8-7.8,7.9-16.1,12.2-24.8
		c0.3-0.7,0.5-1.2,0.5-1.5c0-0.3,0.3-0.8,1-1.5l1.5-5l0.5-1c0-2.7,1.2-4.8,3.5-6.2c2.3-1.5,4.5-2.2,6.5-2.2c2.7,0,5.1,1,7.2,3
		c2.2,2,3.2,4.3,3.2,7c0,2.3-0.5,4-1.5,5l-1.5,3l-4.5,7.5l-17,29l-11.5,19.5l-6,9.5c-1.3,1.7-2.5,3.2-3.5,4.8s-2.3,3.1-4,4.8l-4,5
		l-3,2c-0.7,1-1.8,1.9-3.2,2.8c-1.5,0.8-2.9,1.4-4.2,1.8l-3,1h-4c-2-0.7-4-1.6-6-2.8c-2-1.2-3.7-3.4-5-6.8l-2.5-7l-1.5-6l-2.5,3.5
		l-8.5,13l-9.5,13l-11.5,12.5c-1.7,1.7-3.6,3.2-5.8,4.8s-4.4,2.6-6.8,3.2l-3.5,1c-0.7,0-1.2,0.2-1.5,0.5h-4c-2.7,0-5-0.8-7-2.2
		s-3.5-3.1-4.5-4.8l-2-3c-1.7-2.7-2.5-5.8-2.5-9.5s0-7,0-10l1.5-16l1.5-8c0.3-2.7,0.7-5.2,1-7.5c0.3-2.3,0.8-4.8,1.5-7.5l7.5-45.5
		l1.5-8l0.5-5.5l0.5-3c0.7-4.7,2.8-8.6,6.5-11.8c3.7-3.2,7.8-4.8,12.5-4.8c5.7,0,10.3,1.9,14,5.8c3.7,3.8,5.5,8.2,5.5,13.2
		C309.9,316.1,308.9,319.4,306.9,321.8z"/>
	<path class="st0" d="M445.9,255.3l8-24c2.7-8,5.2-16.1,7.5-24.2c2.3-8.2,4.7-16.4,7-24.8l1-4c0-0.7,0.1-1.1,0.2-1.2
		c0.2-0.2,0.2-0.6,0.2-1.2l2.5-8.5l1.5-6c0-0.7,0.1-1.1,0.2-1.2c0.2-0.2,0.2-0.4,0.2-0.8v-1c0-0.3,0.1-0.5,0.2-0.5
		c0.2,0,0.2-0.2,0.2-0.5l0.5-1c3.3-8.3,9.3-12.5,18-12.5c5.7,0,10.3,1.9,14,5.8c3.7,3.8,5.5,8.6,5.5,14.2c0,1.3-0.3,3.3-1,6l-3,8
		l-2.5,8.5c-12.3,37-24,73.7-35,110c-11,36.3-19,74.3-24,114c-0.3,1.3-0.5,2.7-0.5,4c0,1.3,0,2.7,0,4l5.5-9c3-5.3,6.2-10.7,9.8-16
		c3.5-5.3,6.9-10.8,10.2-16.5l18.5-32.5c1.7-2.7,3.2-5.4,4.8-8.2c1.5-2.8,3.1-5.6,4.8-8.2l9.5-17c1.7-2.7,4-4,7-4
		c2.7,0,4.8,0.8,6.5,2.5c1.7,1.7,2.5,3.7,2.5,6c0,1.3-0.3,2.7-1,4l-9.5,17c-4.3,7.7-9,15.8-14,24.2s-9.7,16.9-14,25.2l-20,33
		l-11,16.5c-2.7,3.7-5.6,7.8-8.8,12.2c-3.2,4.5-6.4,6.8-9.8,6.8c-3,0-5.3-1.2-7-3.8c-1.7-2.5-2.8-5.3-3.2-8.5
		c-0.5-3.2-0.8-6.2-0.8-9c0-2.8,0-4.8,0-5.8s-0.1-1.9-0.2-2.8c-0.2-0.8-0.2-1.8-0.2-2.8c0-13.7,0.9-27.9,2.8-42.8
		c1.8-14.8,4.2-29.2,7.2-43.2l1-8c-6.7,12.3-13.2,25.2-19.8,38.8s-14.2,25.2-23.2,35.2l-4.5,5c-1.7,2-3.5,3.7-5.5,5l-6.5,4.5
		l-4.5,1.5c-0.7,0-1.2,0.1-1.5,0.2c-0.3,0.2-0.8,0.2-1.5,0.2c-2.7,0-4.9-0.6-6.8-1.8c-1.8-1.2-3.1-2.4-3.8-3.8l-2.5-5.5v-8
		c0-1.7,0.1-3,0.2-4c0.2-1,0.4-2.2,0.8-3.5l5-19.5c2.3-6.7,4.6-13,6.8-19c2.2-6,4.8-12.2,7.8-18.5l12-24.5c1-2.3,2.5-4.9,4.5-7.8
		c2-2.8,4.5-5.6,7.5-8.2l6.5-5.5l7.5-3h8.5c4,0,7,0.8,9,2.5c2.3-5.7,4.4-11.2,6.2-16.5C441.5,266.4,443.6,260.9,445.9,255.3z
		 M421.4,318.8c-1.3,1.3-3,2.5-5,3.5s-3.8,2.3-5.5,4l-8,8.5l-7,10c-3.7,5.3-6.8,10.7-9.5,16c-2.7,5.3-5.3,10.8-8,16.5l-6,17.5
		l-0.5,8c1,0,2.2-0.7,3.5-2c1.3-1.3,2.7-2.7,4-4l3.5-4.5c2.3-2.7,4.8-5.8,7.2-9.5c2.5-3.7,4.6-7.3,6.2-11l5.5-11l6-11.5L421.4,318.8
		z"/>
	<path class="st0" d="M560.9,255.3l8-24c2.7-8,5.2-16.1,7.5-24.2c2.3-8.2,4.7-16.4,7-24.8l1-4c0-0.7,0.1-1.1,0.2-1.2
		c0.2-0.2,0.2-0.6,0.2-1.2l2.5-8.5l1.5-6c0-0.7,0.1-1.1,0.2-1.2c0.2-0.2,0.2-0.4,0.2-0.8v-1c0-0.3,0.1-0.5,0.2-0.5
		c0.2,0,0.2-0.2,0.2-0.5l0.5-1c3.3-8.3,9.3-12.5,18-12.5c5.7,0,10.3,1.9,14,5.8c3.7,3.8,5.5,8.6,5.5,14.2c0,1.3-0.3,3.3-1,6l-3,8
		l-2.5,8.5c-12.3,37-24,73.7-35,110c-11,36.3-19,74.3-24,114c-0.3,1.3-0.5,2.7-0.5,4c0,1.3,0,2.7,0,4l5.5-9c3-5.3,6.2-10.7,9.8-16
		c3.5-5.3,6.9-10.8,10.2-16.5l18.5-32.5c1.7-2.7,3.2-5.4,4.8-8.2c1.5-2.8,3.1-5.6,4.8-8.2l9.5-17c1.7-2.7,4-4,7-4
		c2.7,0,4.8,0.8,6.5,2.5c1.7,1.7,2.5,3.7,2.5,6c0,1.3-0.3,2.7-1,4l-9.5,17c-4.3,7.7-9,15.8-14,24.2s-9.7,16.9-14,25.2l-20,33
		l-11,16.5c-2.7,3.7-5.6,7.8-8.8,12.2c-3.2,4.5-6.4,6.8-9.8,6.8c-3,0-5.3-1.2-7-3.8c-1.7-2.5-2.8-5.3-3.2-8.5
		c-0.5-3.2-0.8-6.2-0.8-9c0-2.8,0-4.8,0-5.8s-0.1-1.9-0.2-2.8c-0.2-0.8-0.2-1.8-0.2-2.8c0-13.7,0.9-27.9,2.8-42.8
		c1.8-14.8,4.2-29.2,7.2-43.2l1-8c-6.7,12.3-13.2,25.2-19.8,38.8s-14.2,25.2-23.2,35.2l-4.5,5c-1.7,2-3.5,3.7-5.5,5l-6.5,4.5
		l-4.5,1.5c-0.7,0-1.2,0.1-1.5,0.2c-0.3,0.2-0.8,0.2-1.5,0.2c-2.7,0-4.9-0.6-6.8-1.8c-1.8-1.2-3.1-2.4-3.8-3.8l-2.5-5.5v-8
		c0-1.7,0.1-3,0.2-4c0.2-1,0.4-2.2,0.8-3.5l5-19.5c2.3-6.7,4.6-13,6.8-19c2.2-6,4.8-12.2,7.8-18.5l12-24.5c1-2.3,2.5-4.9,4.5-7.8
		c2-2.8,4.5-5.6,7.5-8.2l6.5-5.5l7.5-3h8.5c4,0,7,0.8,9,2.5c2.3-5.7,4.4-11.2,6.2-16.5C556.5,266.4,558.6,260.9,560.9,255.3z
		 M536.4,318.8c-1.3,1.3-3,2.5-5,3.5s-3.8,2.3-5.5,4l-8,8.5l-7,10c-3.7,5.3-6.8,10.7-9.5,16c-2.7,5.3-5.3,10.8-8,16.5l-6,17.5
		l-0.5,8c1,0,2.2-0.7,3.5-2c1.3-1.3,2.7-2.7,4-4l3.5-4.5c2.3-2.7,4.8-5.8,7.2-9.5c2.5-3.7,4.6-7.3,6.2-11l5.5-11l6-11.5L536.4,318.8
		z"/>
	<path class="st0" d="M622.9,312.8v-1l1-3l1.5-4c6.7-16.3,14.2-32.1,22.8-47.2c8.5-15.2,17.2-29.9,26.2-44.2l4.5-13.5l11.5-31.5
		l11-24c1-3,2.5-5.8,4.5-8.5l2.5-4.5l4-4.5c0.7-0.7,1.4-1.6,2.2-2.8c0.8-1.2,1.6-1.8,2.2-1.8l4-3l4.5-2c0.7,0,1.4-0.2,2.2-0.5
		c0.8-0.3,2.1-0.5,3.8-0.5l8.5,1c5.7,1.7,9.7,4.6,12,8.8c2.3,4.2,3.5,7.2,3.5,9.2l1,3.5c0,1.7-0.2,2.7-0.5,3l-0.5,4.5
		c-0.7,3-1.3,5.3-2,7l-1.5,5l-9,16.5l-4.5,7c-2.7,6.3-6.3,12.2-11,17.8c-4.7,5.5-8.8,11.1-12.5,16.8l-4,6l-7.5,20
		c-4,10.3-7.7,20.6-11,30.8c-3.3,10.2-6.8,20.4-10.5,30.8l-22,61.5c-1.7,5-3.4,10-5.2,15c-1.8,5-3.8,10-5.8,15l1.5-1.5
		c12.7-13.3,24.7-26.8,36-40.2c11.3-13.5,21.7-28.1,31-43.8c1.7-2.7,4.2-4,7.5-4c2.3,0,4.2,0.9,5.5,2.8c1.3,1.8,2,3.6,2,5.2
		c0,2-0.8,4.5-2.5,7.5c-1.7,3-3.7,6.2-6,9.5c-2.3,3.3-4.8,6.6-7.2,9.8c-2.5,3.2-4.6,5.9-6.2,8.2c-9.3,12.7-19.2,24.6-29.5,35.8
		c-10.3,11.2-21,22.2-32,33.2l-10.5,9.5l-3.5,3.5c-1.7,1-3.3,1.5-5,1.5c-2.3,0-4.3-0.7-6-2c-1.7-1.3-2.5-3.3-2.5-6
		c0-5.7,0.8-11.5,2.2-17.5s2.9-11.7,4.2-17c3.3-14.3,6.6-28.6,9.8-42.8c3.2-14.2,6.6-28.4,10.2-42.8c-2.7,3.3-5.4,7.3-8.2,12
		c-2.8,4.7-5.9,7-9.2,7c-2.3,0-4.2-0.8-5.8-2.2s-2.2-3.2-2.2-5.2C622.4,314.4,622.6,313.4,622.9,312.8z"/>
	<path class="st0" d="M715.4,397.3c-0.3,2.7-0.7,5.1-1,7.2c-0.3,2.2-0.5,4.4-0.5,6.8c0,1.7,0.2,3.5,0.5,5.5c0.3,2,0.7,3.2,1,3.5
		l1,3.5c0.3,0,0.5,0.2,0.5,0.5h1.5c2.3,0,4.9-0.8,7.8-2.5c2.8-1.7,5.7-3.7,8.5-6c2.8-2.3,5.6-4.9,8.2-7.8c2.7-2.8,5-5.2,7-7.2l10-12
		c1.7-2,3.2-4.1,4.8-6.2c1.5-2.2,3.1-4.2,4.8-6.2l9-13c2.7-4.3,5.4-8.7,8.2-13c2.8-4.3,5.6-8.8,8.2-13.5l7.5-14l6.5-12l1-2
		c0.7-2,1.9-3.5,3.8-4.5c1.8-1,3.8-1.5,5.8-1.5c3.3,0,6,1.1,8,3.2c2,2.2,3,4.6,3,7.2c0,1.3-0.3,3-1,5l-4.5,8l-9,13.5
		c-5.7,8.7-10.8,16.8-15.2,24.5c-4.5,7.7-9.9,15.3-16.2,23l-9.5,13c-4.7,6.7-10.2,13.6-16.5,20.8c-6.3,7.2-12.7,12.4-19,15.8l-3.5,3
		l-9.5,4c-4,1-7,1.5-9,1.5h-2.5c-4.7,0-8.9-1.9-12.8-5.8c-3.8-3.8-6.4-7.8-7.8-11.8l-1.5-5.5c-0.7-3.3-1.2-6.9-1.8-10.8
		c-0.5-3.8-0.8-7.6-0.8-11.2c0-2.3,0.1-4.7,0.2-7c0.2-2.3,0.2-4.7,0.2-7l1-8c1.7-14,4.2-28.2,7.5-42.5c3.3-14.3,8.7-27.7,16-40
		l5.5-8c2.7-4.3,6.6-8.9,11.8-13.8c5.2-4.8,11.4-7.2,18.8-7.2h3.5c1.3,0,4.4,0.8,9.2,2.2c4.8,1.5,8.6,4.8,11.2,9.8l3.5,7l1.5,7.5
		c0.3,1.7,0.5,3.7,0.5,6c0,6.3-1.2,12.8-3.5,19.5c-2.3,6.7-3.5,10.8-3.5,12.5l-2,4l-3,8l-4,8c-2.3,4-4.7,8.2-7,12.5
		c-2.3,4.3-5.3,8-9,11l-8,6.5l-5,3c-1.3,0.3-2.5,0.7-3.5,1c-1,0.3-2.2,0.5-3.5,0.5h-4.5c-0.7,0-1.8-0.2-3.5-0.8
		c-1.7-0.5-2.5-0.9-2.5-1.2l-1.5,6.5L715.4,397.3z M726.9,364.3c0.3,0.7,0.5,1.3,0.5,2c1.7-1.7,4.2-4.8,7.5-9.2
		c3.3-4.5,5-9.9,5-16.2l0.5-2l1.5-11.5v-1.5l-1,2l-6.5,13l-6,13.5l-2,5c0,1,0.1,1.9,0.2,2.8C726.8,362.8,726.9,363.6,726.9,364.3z"
		/>
</g>
<g>
</g>
<g>
</g>
<g>
</g>
<g>
</g>
<g>
</g>
<g>
</g>
<g>
</g>
<g>
</g>
<g>
</g>
<g>
</g>
<g>
</g>
<g>
</g>
<g>
</g>
<g>
</g>
<g>
</g>
</svg>
